<?xml version="1.0" encoding="UTF-8" standalone="no"?>
<!DOCTYPE svg PUBLIC "-//W3C//DTD SVG 1.1//EN"
 "http://www.w3.org/Graphics/SVG/1.1/DTD/svg11.dtd">
<!-- Generated by graphviz version 6.0.1 (20220911.1526)
 -->
<!-- Title: G Pages: 1 -->
<svg width="1180pt" height="332pt"
 viewBox="0.00 0.00 1180.00 332.00" xmlns="http://www.w3.org/2000/svg" xmlns:xlink="http://www.w3.org/1999/xlink">
<g id="graph0" class="graph" transform="scale(1 1) rotate(0) translate(4 328)">
<title>G</title>
<polygon fill="white" stroke="none" points="-4,4 -4,-328 1176,-328 1176,4 -4,4"/>
<!-- 4198400 -->
<g id="node1" class="node">
<title>4198400</title>
<ellipse fill="none" stroke="black" cx="752" cy="-306" rx="27" ry="18"/>
</g>
<!-- 4211529 -->
<g id="node2" class="node">
<title>4211529</title>
<ellipse fill="none" stroke="black" cx="752" cy="-234" rx="27" ry="18"/>
</g>
<!-- 4198400&#45;&gt;4211529 -->
<g id="edge1" class="edge">
<title>4198400&#45;&gt;4211529</title>
<path fill="none" stroke="black" d="M752,-287.7C752,-279.98 752,-270.71 752,-262.11"/>
<polygon fill="black" stroke="black" points="755.5,-262.1 752,-252.1 748.5,-262.1 755.5,-262.1"/>
</g>
<!-- 4211551 -->
<g id="node3" class="node">
<title>4211551</title>
<ellipse fill="none" stroke="black" cx="603" cy="-162" rx="27" ry="18"/>
</g>
<!-- 4211529&#45;&gt;4211551 -->
<g id="edge2" class="edge">
<title>4211529&#45;&gt;4211551</title>
<path fill="none" stroke="black" d="M730.65,-222.97C705.35,-211.08 662.98,-191.18 634.04,-177.58"/>
<polygon fill="black" stroke="black" points="635.33,-174.32 624.79,-173.24 632.36,-180.66 635.33,-174.32"/>
</g>
<!-- 4216910 -->
<g id="node4" class="node">
<title>4216910</title>
<ellipse fill="none" stroke="black" cx="27" cy="-90" rx="27" ry="18"/>
</g>
<!-- 4211551&#45;&gt;4216910 -->
<g id="edge3" class="edge">
<title>4211551&#45;&gt;4216910</title>
<path fill="none" stroke="black" d="M575.83,-161.53C494.53,-162.65 248.09,-161.61 54,-108 53.78,-107.94 53.57,-107.88 53.35,-107.82"/>
<polygon fill="black" stroke="black" points="54.22,-104.41 43.62,-104.36 51.87,-111.01 54.22,-104.41"/>
</g>
<!-- 4213547 -->
<g id="node5" class="node">
<title>4213547</title>
<ellipse fill="none" stroke="black" cx="99" cy="-90" rx="27" ry="18"/>
</g>
<!-- 4211551&#45;&gt;4213547 -->
<g id="edge4" class="edge">
<title>4211551&#45;&gt;4213547</title>
<path fill="none" stroke="black" d="M576.02,-161.01C503.32,-160.37 297.81,-154.28 135,-108 133.06,-107.45 131.09,-106.8 129.12,-106.08"/>
<polygon fill="black" stroke="black" points="130.07,-102.69 119.49,-102.09 127.39,-109.15 130.07,-102.69"/>
</g>
<!-- 4212365 -->
<g id="node6" class="node">
<title>4212365</title>
<ellipse fill="none" stroke="black" cx="171" cy="-90" rx="27" ry="18"/>
</g>
<!-- 4211551&#45;&gt;4212365 -->
<g id="edge5" class="edge">
<title>4211551&#45;&gt;4212365</title>
<path fill="none" stroke="black" d="M575.92,-160.39C509.63,-158.22 335.7,-148.66 198,-108 197.78,-107.94 197.57,-107.87 197.35,-107.81"/>
<polygon fill="black" stroke="black" points="198.25,-104.41 187.66,-104.24 195.83,-110.98 198.25,-104.41"/>
</g>
<!-- 4217003 -->
<g id="node7" class="node">
<title>4217003</title>
<ellipse fill="none" stroke="black" cx="243" cy="-90" rx="27" ry="18"/>
</g>
<!-- 4211551&#45;&gt;4217003 -->
<g id="edge6" class="edge">
<title>4211551&#45;&gt;4217003</title>
<path fill="none" stroke="black" d="M575.96,-159.13C519.6,-154.69 385.94,-141.28 279,-108 277.07,-107.4 275.11,-106.71 273.15,-105.97"/>
<polygon fill="black" stroke="black" points="274.12,-102.58 263.54,-101.9 271.39,-109.02 274.12,-102.58"/>
</g>
<!-- 4213612 -->
<g id="node8" class="node">
<title>4213612</title>
<ellipse fill="none" stroke="black" cx="315" cy="-90" rx="27" ry="18"/>
</g>
<!-- 4211551&#45;&gt;4213612 -->
<g id="edge7" class="edge">
<title>4211551&#45;&gt;4213612</title>
<path fill="none" stroke="black" d="M576.71,-157.54C530.28,-150.98 431.09,-134.92 351,-108 349.08,-107.36 347.14,-106.64 345.19,-105.87"/>
<polygon fill="black" stroke="black" points="346.17,-102.48 335.6,-101.74 343.4,-108.91 346.17,-102.48"/>
</g>
<!-- 4211239 -->
<g id="node9" class="node">
<title>4211239</title>
<ellipse fill="none" stroke="black" cx="387" cy="-90" rx="27" ry="18"/>
</g>
<!-- 4211551&#45;&gt;4211239 -->
<g id="edge8" class="edge">
<title>4211551&#45;&gt;4211239</title>
<path fill="none" stroke="black" d="M577.85,-154.91C542.68,-146.1 477.04,-128.57 423,-108 421.16,-107.3 419.28,-106.54 417.4,-105.75"/>
<polygon fill="black" stroke="black" points="418.64,-102.48 408.08,-101.62 415.81,-108.88 418.64,-102.48"/>
</g>
<!-- 4210979 -->
<g id="node10" class="node">
<title>4210979</title>
<ellipse fill="none" stroke="black" cx="459" cy="-90" rx="27" ry="18"/>
</g>
<!-- 4211551&#45;&gt;4210979 -->
<g id="edge9" class="edge">
<title>4211551&#45;&gt;4210979</title>
<path fill="none" stroke="black" d="M580.09,-152.13C554.77,-140.95 514.33,-121.48 487.14,-107.51"/>
<polygon fill="black" stroke="black" points="488.61,-104.33 478.12,-102.83 485.38,-110.54 488.61,-104.33"/>
</g>
<!-- 4212179 -->
<g id="node11" class="node">
<title>4212179</title>
<ellipse fill="none" stroke="black" cx="531" cy="-90" rx="27" ry="18"/>
</g>
<!-- 4211551&#45;&gt;4212179 -->
<g id="edge10" class="edge">
<title>4211551&#45;&gt;4212179</title>
<path fill="none" stroke="black" d="M584.81,-148.49C573.66,-139.03 559.66,-125.77 548.63,-114.37"/>
<polygon fill="black" stroke="black" points="550.95,-111.72 541.54,-106.85 545.85,-116.52 550.95,-111.72"/>
</g>
<!-- 4213055 -->
<g id="node12" class="node">
<title>4213055</title>
<ellipse fill="none" stroke="black" cx="603" cy="-90" rx="27" ry="18"/>
</g>
<!-- 4211551&#45;&gt;4213055 -->
<g id="edge11" class="edge">
<title>4211551&#45;&gt;4213055</title>
<path fill="none" stroke="black" d="M603,-143.7C603,-135.98 603,-126.71 603,-118.11"/>
<polygon fill="black" stroke="black" points="606.5,-118.1 603,-108.1 599.5,-118.1 606.5,-118.1"/>
</g>
<!-- 4212466 -->
<g id="node13" class="node">
<title>4212466</title>
<ellipse fill="none" stroke="black" cx="675" cy="-90" rx="27" ry="18"/>
</g>
<!-- 4211551&#45;&gt;4212466 -->
<g id="edge12" class="edge">
<title>4211551&#45;&gt;4212466</title>
<path fill="none" stroke="black" d="M617.57,-146.83C627.75,-136.94 641.52,-123.55 653.03,-112.36"/>
<polygon fill="black" stroke="black" points="655.47,-114.87 660.2,-105.38 650.59,-109.85 655.47,-114.87"/>
</g>
<!-- 4217620 -->
<g id="node14" class="node">
<title>4217620</title>
<ellipse fill="none" stroke="black" cx="747" cy="-90" rx="27" ry="18"/>
</g>
<!-- 4211551&#45;&gt;4217620 -->
<g id="edge13" class="edge">
<title>4211551&#45;&gt;4217620</title>
<path fill="none" stroke="black" d="M624.25,-150.67C648.6,-138.83 688.72,-119.33 716.43,-105.86"/>
<polygon fill="black" stroke="black" points="718.2,-108.89 725.67,-101.37 715.14,-102.6 718.2,-108.89"/>
</g>
<!-- 4216961 -->
<g id="node15" class="node">
<title>4216961</title>
<ellipse fill="none" stroke="black" cx="1145" cy="-90" rx="27" ry="18"/>
</g>
<!-- 4211551&#45;&gt;4216961 -->
<g id="edge14" class="edge">
<title>4211551&#45;&gt;4216961</title>
<path fill="none" stroke="black" d="M629.79,-159.19C720.08,-152.91 1012.67,-131.25 1104,-108 1107.39,-107.14 1110.86,-106.05 1114.29,-104.84"/>
<polygon fill="black" stroke="black" points="1115.63,-108.07 1123.69,-101.19 1113.1,-101.54 1115.63,-108.07"/>
</g>
<!-- 4212056 -->
<g id="node16" class="node">
<title>4212056</title>
<ellipse fill="none" stroke="black" cx="819" cy="-90" rx="27" ry="18"/>
</g>
<!-- 4211551&#45;&gt;4212056 -->
<g id="edge15" class="edge">
<title>4211551&#45;&gt;4212056</title>
<path fill="none" stroke="black" d="M627,-153.58C660.58,-144.41 722.55,-127.59 774,-108 777.85,-106.53 781.86,-104.83 785.86,-103.07"/>
<polygon fill="black" stroke="black" points="787.37,-106.23 795.1,-98.98 784.54,-99.83 787.37,-106.23"/>
</g>
<!-- 4216384 -->
<g id="node17" class="node">
<title>4216384</title>
<ellipse fill="none" stroke="black" cx="891" cy="-90" rx="27" ry="18"/>
</g>
<!-- 4211551&#45;&gt;4216384 -->
<g id="edge16" class="edge">
<title>4211551&#45;&gt;4216384</title>
<path fill="none" stroke="black" d="M628.9,-156.77C674.04,-149.77 768.87,-133.92 846,-108 849.98,-106.66 854.1,-105 858.19,-103.25"/>
<polygon fill="black" stroke="black" points="859.86,-106.34 867.59,-99.09 857.02,-99.93 859.86,-106.34"/>
</g>
<!-- 4216915 -->
<g id="node18" class="node">
<title>4216915</title>
<ellipse fill="none" stroke="black" cx="963" cy="-90" rx="27" ry="18"/>
</g>
<!-- 4211551&#45;&gt;4216915 -->
<g id="edge17" class="edge">
<title>4211551&#45;&gt;4216915</title>
<path fill="none" stroke="black" d="M629.69,-158.74C684.86,-153.93 814.05,-140.34 918,-108 922.01,-106.75 926.14,-105.14 930.24,-103.41"/>
<polygon fill="black" stroke="black" points="931.91,-106.49 939.64,-99.25 929.08,-100.09 931.91,-106.49"/>
</g>
<!-- 4211779 -->
<g id="node19" class="node">
<title>4211779</title>
<ellipse fill="none" stroke="black" cx="1035" cy="-90" rx="27" ry="18"/>
</g>
<!-- 4211551&#45;&gt;4211779 -->
<g id="edge18" class="edge">
<title>4211551&#45;&gt;4211779</title>
<path fill="none" stroke="black" d="M630.01,-160.23C694.92,-157.79 864.29,-147.78 999,-108 1000.94,-107.43 1002.9,-106.76 1004.87,-106.04"/>
<polygon fill="black" stroke="black" points="1006.61,-109.1 1014.49,-102.01 1003.91,-102.64 1006.61,-109.1"/>
</g>
<!-- 4216910&#45;&gt;4211551 -->
<g id="edge19" class="edge">
<title>4216910&#45;&gt;4211551</title>
<path fill="none" stroke="black" d="M50.29,-99.48C57.27,-102.68 64.8,-106.01 72,-108 252.4,-157.83 478.03,-162.24 565.82,-161.71"/>
<polygon fill="black" stroke="black" points="565.87,-165.21 575.84,-161.63 565.81,-158.21 565.87,-165.21"/>
</g>
<!-- 4217252 -->
<g id="node20" class="node">
<title>4217252</title>
<ellipse fill="none" stroke="black" cx="495" cy="-18" rx="27" ry="18"/>
</g>
<!-- 4213547&#45;&gt;4217252 -->
<g id="edge20" class="edge">
<title>4213547&#45;&gt;4217252</title>
<path fill="none" stroke="black" d="M119.53,-78.04C124.48,-75.75 129.84,-73.56 135,-72 249.27,-37.44 391.01,-25.02 457.39,-20.89"/>
<polygon fill="black" stroke="black" points="457.99,-24.36 467.76,-20.27 457.57,-17.37 457.99,-24.36"/>
</g>
<!-- 4212365&#45;&gt;4211551 -->
<g id="edge22" class="edge">
<title>4212365&#45;&gt;4211551</title>
<path fill="none" stroke="black" d="M194.33,-99.36C201.31,-102.53 208.84,-105.89 216,-108 340.97,-144.9 495.77,-156.18 565.77,-159.58"/>
<polygon fill="black" stroke="black" points="565.71,-163.08 575.86,-160.04 566.03,-156.09 565.71,-163.08"/>
</g>
<!-- 4217003&#45;&gt;4217252 -->
<g id="edge23" class="edge">
<title>4217003&#45;&gt;4217252</title>
<path fill="none" stroke="black" d="M263.64,-78.39C268.59,-76.08 273.92,-73.8 279,-72 340.86,-50.06 415.8,-33.89 459.18,-25.5"/>
<polygon fill="black" stroke="black" points="460.07,-28.89 469.24,-23.58 458.76,-22.01 460.07,-28.89"/>
</g>
<!-- 4213612&#45;&gt;4217252 -->
<g id="edge24" class="edge">
<title>4213612&#45;&gt;4217252</title>
<path fill="none" stroke="black" d="M336.18,-78.62C341.01,-76.35 346.16,-74.03 351,-72 388.36,-56.34 432.15,-40.58 461.54,-30.37"/>
<polygon fill="black" stroke="black" points="463,-33.57 471.31,-27 460.71,-26.95 463,-33.57"/>
</g>
<!-- 4211239&#45;&gt;4217252 -->
<g id="edge25" class="edge">
<title>4211239&#45;&gt;4217252</title>
<path fill="none" stroke="black" d="M405.81,-76.81C423,-65.67 448.62,-49.06 467.99,-36.5"/>
<polygon fill="black" stroke="black" points="469.92,-39.43 476.4,-31.05 466.11,-33.56 469.92,-39.43"/>
</g>
<!-- 4210979&#45;&gt;4211551 -->
<g id="edge26" class="edge">
<title>4210979&#45;&gt;4211551</title>
<path fill="none" stroke="black" d="M481.81,-99.82C507.1,-110.99 547.53,-130.46 574.76,-144.43"/>
<polygon fill="black" stroke="black" points="573.3,-147.62 583.79,-149.13 576.53,-141.41 573.3,-147.62"/>
</g>
<!-- 4212179&#45;&gt;4211551 -->
<g id="edge27" class="edge">
<title>4212179&#45;&gt;4211551</title>
<path fill="none" stroke="black" d="M549.24,-103.56C560.38,-113.01 574.34,-126.23 585.34,-137.6"/>
<polygon fill="black" stroke="black" points="583.02,-140.24 592.42,-145.12 588.11,-135.44 583.02,-140.24"/>
</g>
<!-- 4213055&#45;&gt;4217252 -->
<g id="edge28" class="edge">
<title>4213055&#45;&gt;4217252</title>
<path fill="none" stroke="black" d="M584.19,-76.81C567,-65.67 541.38,-49.06 522.01,-36.5"/>
<polygon fill="black" stroke="black" points="523.89,-33.56 513.6,-31.05 520.08,-39.43 523.89,-33.56"/>
</g>
<!-- 4212466&#45;&gt;4217252 -->
<g id="edge29" class="edge">
<title>4212466&#45;&gt;4217252</title>
<path fill="none" stroke="black" d="M653.82,-78.62C648.99,-76.35 643.84,-74.03 639,-72 601.64,-56.34 557.85,-40.58 528.46,-30.37"/>
<polygon fill="black" stroke="black" points="529.29,-26.95 518.69,-27 527,-33.57 529.29,-26.95"/>
</g>
<!-- 4217620&#45;&gt;4217252 -->
<g id="edge30" class="edge">
<title>4217620&#45;&gt;4217252</title>
<path fill="none" stroke="black" d="M726.36,-78.39C721.41,-76.08 716.08,-73.8 711,-72 649.14,-50.06 574.2,-33.89 530.82,-25.5"/>
<polygon fill="black" stroke="black" points="531.24,-22.01 520.76,-23.58 529.93,-28.89 531.24,-22.01"/>
</g>
<!-- 4216961&#45;&gt;4211529 -->
<g id="edge31" class="edge">
<title>4216961&#45;&gt;4211529</title>
<path fill="none" stroke="black" d="M1121.67,-99.43C1054.78,-123.6 862.26,-193.16 784.83,-221.14"/>
<polygon fill="black" stroke="black" points="783.33,-217.96 775.12,-224.65 785.71,-224.54 783.33,-217.96"/>
</g>
<!-- 4212056&#45;&gt;4211551 -->
<g id="edge32" class="edge">
<title>4212056&#45;&gt;4211551</title>
<path fill="none" stroke="black" d="M801.79,-103.92C798.57,-105.37 795.23,-106.77 792,-108 739.88,-127.84 676.97,-144.85 638.32,-153.94"/>
<polygon fill="black" stroke="black" points="637.52,-150.53 628.56,-156.18 639.09,-157.35 637.52,-150.53"/>
</g>
<!-- 4216384&#45;&gt;4211551 -->
<g id="edge33" class="edge">
<title>4216384&#45;&gt;4211551</title>
<path fill="none" stroke="black" d="M873.88,-104.17C870.65,-105.58 867.28,-106.9 864,-108 786.49,-134.05 691.1,-149.93 639.67,-156.88"/>
<polygon fill="black" stroke="black" points="639.14,-153.41 629.68,-158.18 640.05,-160.36 639.14,-153.41"/>
</g>
<!-- 4216915&#45;&gt;4211551 -->
<g id="edge34" class="edge">
<title>4216915&#45;&gt;4211551</title>
<path fill="none" stroke="black" d="M945.93,-104.31C942.68,-105.7 939.3,-106.97 936,-108 832.08,-140.34 702.92,-153.92 640.26,-158.74"/>
<polygon fill="black" stroke="black" points="639.79,-155.26 630.07,-159.49 640.3,-162.24 639.79,-155.26"/>
</g>
<!-- 4217252&#45;&gt;4211551 -->
<g id="edge21" class="edge">
<title>4217252&#45;&gt;4211551</title>
<path fill="none" stroke="black" d="M522.26,-19.4C631.51,-21.29 1033.61,-31.01 1071,-72 1081.78,-83.82 1081.66,-96.07 1071,-108 1042.4,-140.02 745.7,-155.18 640.08,-159.58"/>
<polygon fill="black" stroke="black" points="639.74,-156.1 629.89,-160 640.02,-163.09 639.74,-156.1"/>
</g>
</g>
</svg>
