<?xml version="1.0" encoding="UTF-8" standalone="no"?>
<!DOCTYPE svg PUBLIC "-//W3C//DTD SVG 1.1//EN"
 "http://www.w3.org/Graphics/SVG/1.1/DTD/svg11.dtd">
<!-- Generated by graphviz version 6.0.1 (20220911.1526)
 -->
<!-- Title: G Pages: 1 -->
<svg width="1781pt" height="332pt"
 viewBox="0.00 0.00 1780.64 332.00" xmlns="http://www.w3.org/2000/svg" xmlns:xlink="http://www.w3.org/1999/xlink">
<g id="graph0" class="graph" transform="scale(1 1) rotate(0) translate(4 328)">
<title>G</title>
<polygon fill="white" stroke="none" points="-4,4 -4,-328 1776.64,-328 1776.64,4 -4,4"/>
<!-- 4198400 -->
<g id="node1" class="node">
<title>4198400</title>
<ellipse fill="none" stroke="black" cx="960.5" cy="-306" rx="46.29" ry="18"/>
<text text-anchor="middle" x="960.5" y="-302.3" font-family="Times New Roman,serif" font-size="14.00">0x401000</text>
</g>
<!-- 4211529 -->
<g id="node2" class="node">
<title>4211529</title>
<ellipse fill="none" stroke="black" cx="960.5" cy="-234" rx="46.29" ry="18"/>
<text text-anchor="middle" x="960.5" y="-230.3" font-family="Times New Roman,serif" font-size="14.00">0x404349</text>
</g>
<!-- 4198400&#45;&gt;4211529 -->
<g id="edge1" class="edge">
<title>4198400&#45;&gt;4211529</title>
<path fill="none" stroke="black" d="M960.5,-287.7C960.5,-279.98 960.5,-270.71 960.5,-262.11"/>
<polygon fill="black" stroke="black" points="964,-262.1 960.5,-252.1 957,-262.1 964,-262.1"/>
</g>
<!-- 4211551 -->
<g id="node3" class="node">
<title>4211551</title>
<ellipse fill="none" stroke="black" cx="924.5" cy="-162" rx="44.39" ry="18"/>
<text text-anchor="middle" x="924.5" y="-158.3" font-family="Times New Roman,serif" font-size="14.00">0x40435f</text>
</g>
<!-- 4211529&#45;&gt;4211551 -->
<g id="edge2" class="edge">
<title>4211529&#45;&gt;4211551</title>
<path fill="none" stroke="black" d="M951.78,-216.05C947.58,-207.89 942.45,-197.91 937.78,-188.82"/>
<polygon fill="black" stroke="black" points="940.82,-187.08 933.13,-179.79 934.59,-190.28 940.82,-187.08"/>
</g>
<!-- 4216910 -->
<g id="node4" class="node">
<title>4216910</title>
<ellipse fill="none" stroke="black" cx="45.5" cy="-90" rx="45.49" ry="18"/>
<text text-anchor="middle" x="45.5" y="-86.3" font-family="Times New Roman,serif" font-size="14.00">0x40584e</text>
</g>
<!-- 4211551&#45;&gt;4216910 -->
<g id="edge3" class="edge">
<title>4211551&#45;&gt;4216910</title>
<path fill="none" stroke="black" d="M880.55,-159.69C731.04,-154.83 243.75,-136.61 90.5,-108 88.3,-107.59 86.06,-107.12 83.82,-106.6"/>
<polygon fill="black" stroke="black" points="84.62,-103.19 74.06,-104.07 82.86,-109.97 84.62,-103.19"/>
</g>
<!-- 4213547 -->
<g id="node5" class="node">
<title>4213547</title>
<ellipse fill="none" stroke="black" cx="155.5" cy="-90" rx="46.59" ry="18"/>
<text text-anchor="middle" x="155.5" y="-86.3" font-family="Times New Roman,serif" font-size="14.00">0x404b2b</text>
</g>
<!-- 4211551&#45;&gt;4213547 -->
<g id="edge4" class="edge">
<title>4211551&#45;&gt;4213547</title>
<path fill="none" stroke="black" d="M880.25,-161.08C767.63,-160.57 461.33,-154.62 211.5,-108 207.39,-107.23 203.17,-106.28 198.96,-105.21"/>
<polygon fill="black" stroke="black" points="199.82,-101.82 189.25,-102.56 197.98,-108.57 199.82,-101.82"/>
</g>
<!-- 4212365 -->
<g id="node6" class="node">
<title>4212365</title>
<ellipse fill="none" stroke="black" cx="266.5" cy="-90" rx="46.29" ry="18"/>
<text text-anchor="middle" x="266.5" y="-86.3" font-family="Times New Roman,serif" font-size="14.00">0x40468d</text>
</g>
<!-- 4211551&#45;&gt;4212365 -->
<g id="edge5" class="edge">
<title>4211551&#45;&gt;4212365</title>
<path fill="none" stroke="black" d="M880.44,-160.41C778.98,-158.35 522.1,-149.12 312.5,-108 310.26,-107.56 308,-107.07 305.72,-106.53"/>
<polygon fill="black" stroke="black" points="306.35,-103.08 295.79,-103.94 304.58,-109.85 306.35,-103.08"/>
</g>
<!-- 4217003 -->
<g id="node7" class="node">
<title>4217003</title>
<ellipse fill="none" stroke="black" cx="376.5" cy="-90" rx="46.29" ry="18"/>
<text text-anchor="middle" x="376.5" y="-86.3" font-family="Times New Roman,serif" font-size="14.00">0x4058ab</text>
</g>
<!-- 4211551&#45;&gt;4217003 -->
<g id="edge6" class="edge">
<title>4211551&#45;&gt;4217003</title>
<path fill="none" stroke="black" d="M880.53,-159.12C793.84,-154.78 595.05,-141.74 431.5,-108 427.64,-107.2 423.67,-106.25 419.71,-105.21"/>
<polygon fill="black" stroke="black" points="420.54,-101.81 409.97,-102.47 418.65,-108.55 420.54,-101.81"/>
</g>
<!-- 4213612 -->
<g id="node8" class="node">
<title>4213612</title>
<ellipse fill="none" stroke="black" cx="486.5" cy="-90" rx="46.29" ry="18"/>
<text text-anchor="middle" x="486.5" y="-86.3" font-family="Times New Roman,serif" font-size="14.00">0x404b6c</text>
</g>
<!-- 4211551&#45;&gt;4213612 -->
<g id="edge7" class="edge">
<title>4211551&#45;&gt;4213612</title>
<path fill="none" stroke="black" d="M881.59,-157.35C810.33,-150.79 663.38,-135.08 541.5,-108 537.82,-107.18 534.03,-106.24 530.24,-105.22"/>
<polygon fill="black" stroke="black" points="530.87,-101.76 520.3,-102.39 528.96,-108.49 530.87,-101.76"/>
</g>
<!-- 4211239 -->
<g id="node9" class="node">
<title>4211239</title>
<ellipse fill="none" stroke="black" cx="596.5" cy="-90" rx="46.29" ry="18"/>
<text text-anchor="middle" x="596.5" y="-86.3" font-family="Times New Roman,serif" font-size="14.00">0x404227</text>
</g>
<!-- 4211551&#45;&gt;4211239 -->
<g id="edge8" class="edge">
<title>4211551&#45;&gt;4211239</title>
<path fill="none" stroke="black" d="M883.95,-154.54C830.37,-145.68 733.21,-128.5 651.5,-108 647.89,-107.1 644.17,-106.1 640.45,-105.05"/>
<polygon fill="black" stroke="black" points="641.24,-101.63 630.66,-102.19 639.28,-108.35 641.24,-101.63"/>
</g>
<!-- 4210979 -->
<g id="node10" class="node">
<title>4210979</title>
<ellipse fill="none" stroke="black" cx="706.5" cy="-90" rx="46.29" ry="18"/>
<text text-anchor="middle" x="706.5" y="-86.3" font-family="Times New Roman,serif" font-size="14.00">0x404123</text>
</g>
<!-- 4211551&#45;&gt;4210979 -->
<g id="edge9" class="edge">
<title>4211551&#45;&gt;4210979</title>
<path fill="none" stroke="black" d="M888.85,-151.12C850.34,-139.46 789.25,-119.93 748.46,-106.3"/>
<polygon fill="black" stroke="black" points="749.4,-102.93 738.81,-103.06 747.17,-109.56 749.4,-102.93"/>
</g>
<!-- 4212179 -->
<g id="node11" class="node">
<title>4212179</title>
<ellipse fill="none" stroke="black" cx="816.5" cy="-90" rx="46.29" ry="18"/>
<text text-anchor="middle" x="816.5" y="-86.3" font-family="Times New Roman,serif" font-size="14.00">0x4045d3</text>
</g>
<!-- 4211551&#45;&gt;4212179 -->
<g id="edge10" class="edge">
<title>4211551&#45;&gt;4212179</title>
<path fill="none" stroke="black" d="M898.21,-147.5C881.48,-137.56 860.03,-123.83 843.23,-112.39"/>
<polygon fill="black" stroke="black" points="845.13,-109.46 834.92,-106.65 841.16,-115.22 845.13,-109.46"/>
</g>
<!-- 4213055 -->
<g id="node12" class="node">
<title>4213055</title>
<ellipse fill="none" stroke="black" cx="924.5" cy="-90" rx="44.39" ry="18"/>
<text text-anchor="middle" x="924.5" y="-86.3" font-family="Times New Roman,serif" font-size="14.00">0x40493f</text>
</g>
<!-- 4211551&#45;&gt;4213055 -->
<g id="edge11" class="edge">
<title>4211551&#45;&gt;4213055</title>
<path fill="none" stroke="black" d="M924.5,-143.7C924.5,-135.98 924.5,-126.71 924.5,-118.11"/>
<polygon fill="black" stroke="black" points="928,-118.1 924.5,-108.1 921,-118.1 928,-118.1"/>
</g>
<!-- 4212466 -->
<g id="node13" class="node">
<title>4212466</title>
<ellipse fill="none" stroke="black" cx="1030.5" cy="-90" rx="44.39" ry="18"/>
<text text-anchor="middle" x="1030.5" y="-86.3" font-family="Times New Roman,serif" font-size="14.00">0x4046f2</text>
</g>
<!-- 4211551&#45;&gt;4212466 -->
<g id="edge12" class="edge">
<title>4211551&#45;&gt;4212466</title>
<path fill="none" stroke="black" d="M946.72,-146.33C962.12,-136.15 982.84,-122.47 999.81,-111.26"/>
<polygon fill="black" stroke="black" points="1001.89,-114.09 1008.3,-105.65 998.03,-108.25 1001.89,-114.09"/>
</g>
<!-- 4217620 -->
<g id="node14" class="node">
<title>4217620</title>
<ellipse fill="none" stroke="black" cx="1138.5" cy="-90" rx="46.29" ry="18"/>
<text text-anchor="middle" x="1138.5" y="-86.3" font-family="Times New Roman,serif" font-size="14.00">0x405b14</text>
</g>
<!-- 4211551&#45;&gt;4217620 -->
<g id="edge13" class="edge">
<title>4211551&#45;&gt;4217620</title>
<path fill="none" stroke="black" d="M957.93,-150.06C994.75,-138.02 1054.08,-118.61 1094.61,-105.35"/>
<polygon fill="black" stroke="black" points="1095.82,-108.64 1104.23,-102.21 1093.64,-101.99 1095.82,-108.64"/>
</g>
<!-- 4216961 -->
<g id="node15" class="node">
<title>4216961</title>
<ellipse fill="none" stroke="black" cx="1726.5" cy="-90" rx="46.29" ry="18"/>
<text text-anchor="middle" x="1726.5" y="-86.3" font-family="Times New Roman,serif" font-size="14.00">0x405881</text>
</g>
<!-- 4211551&#45;&gt;4216961 -->
<g id="edge14" class="edge">
<title>4211551&#45;&gt;4216961</title>
<path fill="none" stroke="black" d="M968.31,-159.05C1106.32,-152.73 1530.86,-131.8 1666.5,-108 1671.56,-107.11 1676.82,-105.97 1682.02,-104.69"/>
<polygon fill="black" stroke="black" points="1683.09,-108.03 1691.88,-102.11 1681.32,-101.26 1683.09,-108.03"/>
</g>
<!-- 4212056 -->
<g id="node16" class="node">
<title>4212056</title>
<ellipse fill="none" stroke="black" cx="1248.5" cy="-90" rx="46.29" ry="18"/>
<text text-anchor="middle" x="1248.5" y="-86.3" font-family="Times New Roman,serif" font-size="14.00">0x404558</text>
</g>
<!-- 4211551&#45;&gt;4212056 -->
<g id="edge15" class="edge">
<title>4211551&#45;&gt;4212056</title>
<path fill="none" stroke="black" d="M963.6,-153.53C1014.8,-144.37 1106.73,-127.62 1184.5,-108 1189.83,-106.66 1195.4,-105.1 1200.97,-103.5"/>
<polygon fill="black" stroke="black" points="1202.3,-106.75 1210.91,-100.57 1200.33,-100.04 1202.3,-106.75"/>
</g>
<!-- 4216384 -->
<g id="node17" class="node">
<title>4216384</title>
<ellipse fill="none" stroke="black" cx="1358.5" cy="-90" rx="46.29" ry="18"/>
<text text-anchor="middle" x="1358.5" y="-86.3" font-family="Times New Roman,serif" font-size="14.00">0x405640</text>
</g>
<!-- 4211551&#45;&gt;4216384 -->
<g id="edge16" class="edge">
<title>4211551&#45;&gt;4216384</title>
<path fill="none" stroke="black" d="M966.98,-156.76C1036.26,-149.83 1177.12,-134.17 1294.5,-108 1300.06,-106.76 1305.87,-105.23 1311.65,-103.6"/>
<polygon fill="black" stroke="black" points="1312.66,-106.95 1321.28,-100.79 1310.7,-100.23 1312.66,-106.95"/>
</g>
<!-- 4216915 -->
<g id="node18" class="node">
<title>4216915</title>
<ellipse fill="none" stroke="black" cx="1468.5" cy="-90" rx="46.29" ry="18"/>
<text text-anchor="middle" x="1468.5" y="-86.3" font-family="Times New Roman,serif" font-size="14.00">0x405853</text>
</g>
<!-- 4211551&#45;&gt;4216915 -->
<g id="edge17" class="edge">
<title>4211551&#45;&gt;4216915</title>
<path fill="none" stroke="black" d="M968.24,-158.8C1053.21,-154.13 1245.61,-140.85 1404.5,-108 1410.14,-106.83 1416.03,-105.33 1421.87,-103.7"/>
<polygon fill="black" stroke="black" points="1422.98,-107.02 1431.61,-100.88 1421.03,-100.3 1422.98,-107.02"/>
</g>
<!-- 4211779 -->
<g id="node19" class="node">
<title>4211779</title>
<ellipse fill="none" stroke="black" cx="1578.5" cy="-90" rx="46.29" ry="18"/>
<text text-anchor="middle" x="1578.5" y="-86.3" font-family="Times New Roman,serif" font-size="14.00">0x404443</text>
</g>
<!-- 4211551&#45;&gt;4211779 -->
<g id="edge18" class="edge">
<title>4211551&#45;&gt;4211779</title>
<path fill="none" stroke="black" d="M968.53,-160.28C1068.26,-157.96 1318.61,-148.26 1523.5,-108 1527.36,-107.24 1531.33,-106.31 1535.29,-105.29"/>
<polygon fill="black" stroke="black" points="1536.35,-108.63 1545.04,-102.57 1534.47,-101.88 1536.35,-108.63"/>
</g>
<!-- 4216910&#45;&gt;4211551 -->
<g id="edge19" class="edge">
<title>4216910&#45;&gt;4211551</title>
<path fill="none" stroke="black" d="M81.52,-101.04C90.34,-103.74 99.7,-106.36 108.5,-108 255.9,-135.52 712.29,-153.42 870.18,-159.08"/>
<polygon fill="black" stroke="black" points="870.46,-162.59 880.58,-159.45 870.71,-155.59 870.46,-162.59"/>
</g>
<!-- 4217252 -->
<g id="node20" class="node">
<title>4217252</title>
<ellipse fill="none" stroke="black" cx="760.5" cy="-18" rx="45.49" ry="18"/>
<text text-anchor="middle" x="760.5" y="-14.3" font-family="Times New Roman,serif" font-size="14.00">0x4059a4</text>
</g>
<!-- 4213547&#45;&gt;4217252 -->
<g id="edge20" class="edge">
<title>4213547&#45;&gt;4217252</title>
<path fill="none" stroke="black" d="M189.58,-77.48C196.75,-75.39 204.32,-73.42 211.5,-72 389.76,-36.7 605.44,-24.61 705.09,-20.72"/>
<polygon fill="black" stroke="black" points="705.36,-24.21 715.22,-20.34 705.1,-17.22 705.36,-24.21"/>
</g>
<!-- 4212365&#45;&gt;4211551 -->
<g id="edge22" class="edge">
<title>4212365&#45;&gt;4211551</title>
<path fill="none" stroke="black" d="M303.36,-100.99C312.25,-103.65 321.67,-106.27 330.5,-108 527.11,-146.57 765.31,-157.09 870.4,-159.94"/>
<polygon fill="black" stroke="black" points="870.36,-163.44 880.44,-160.2 870.54,-156.45 870.36,-163.44"/>
</g>
<!-- 4217003&#45;&gt;4217252 -->
<g id="edge23" class="edge">
<title>4217003&#45;&gt;4217252</title>
<path fill="none" stroke="black" d="M410.33,-77.73C417.28,-75.64 424.59,-73.62 431.5,-72 527.75,-49.49 642.07,-33.42 707.47,-25.22"/>
<polygon fill="black" stroke="black" points="708.04,-28.67 717.53,-23.97 707.18,-21.73 708.04,-28.67"/>
</g>
<!-- 4213612&#45;&gt;4217252 -->
<g id="edge24" class="edge">
<title>4213612&#45;&gt;4217252</title>
<path fill="none" stroke="black" d="M521.02,-77.97C527.79,-75.91 534.85,-73.83 541.5,-72 599.75,-55.96 667.44,-39.98 711.97,-29.83"/>
<polygon fill="black" stroke="black" points="712.96,-33.19 721.94,-27.57 711.41,-26.37 712.96,-33.19"/>
</g>
<!-- 4211239&#45;&gt;4217252 -->
<g id="edge25" class="edge">
<title>4211239&#45;&gt;4217252</title>
<path fill="none" stroke="black" d="M626.58,-76.16C653.16,-64.81 692.12,-48.19 721.17,-35.79"/>
<polygon fill="black" stroke="black" points="722.78,-38.9 730.61,-31.76 720.04,-32.46 722.78,-38.9"/>
</g>
<!-- 4210979&#45;&gt;4211551 -->
<g id="edge26" class="edge">
<title>4210979&#45;&gt;4211551</title>
<path fill="none" stroke="black" d="M743.06,-101.16C781.98,-112.96 843.18,-132.54 883.64,-146.07"/>
<polygon fill="black" stroke="black" points="882.61,-149.41 893.2,-149.28 884.84,-142.78 882.61,-149.41"/>
</g>
<!-- 4212179&#45;&gt;4211551 -->
<g id="edge27" class="edge">
<title>4212179&#45;&gt;4211551</title>
<path fill="none" stroke="black" d="M843.34,-104.83C860.07,-114.8 881.36,-128.44 898.01,-139.78"/>
<polygon fill="black" stroke="black" points="896.03,-142.66 906.25,-145.46 900.01,-136.9 896.03,-142.66"/>
</g>
<!-- 4213055&#45;&gt;4217252 -->
<g id="edge28" class="edge">
<title>4213055&#45;&gt;4217252</title>
<path fill="none" stroke="black" d="M895.18,-76.49C868.6,-65.14 829.24,-48.34 799.92,-35.83"/>
<polygon fill="black" stroke="black" points="800.96,-32.47 790.39,-31.76 798.22,-38.91 800.96,-32.47"/>
</g>
<!-- 4212466&#45;&gt;4217252 -->
<g id="edge29" class="edge">
<title>4212466&#45;&gt;4217252</title>
<path fill="none" stroke="black" d="M997.24,-77.94C990.72,-75.88 983.91,-73.81 977.5,-72 920.02,-55.78 853.16,-39.9 809.01,-29.81"/>
<polygon fill="black" stroke="black" points="809.65,-26.37 799.13,-27.56 808.1,-33.2 809.65,-26.37"/>
</g>
<!-- 4217620&#45;&gt;4217252 -->
<g id="edge30" class="edge">
<title>4217620&#45;&gt;4217252</title>
<path fill="none" stroke="black" d="M1104.66,-77.75C1097.71,-75.66 1090.4,-73.63 1083.5,-72 989.57,-49.89 878.15,-33.79 813.75,-25.46"/>
<polygon fill="black" stroke="black" points="813.81,-21.94 803.45,-24.14 812.92,-28.88 813.81,-21.94"/>
</g>
<!-- 4216961&#45;&gt;4211529 -->
<g id="edge31" class="edge">
<title>4216961&#45;&gt;4211529</title>
<path fill="none" stroke="black" d="M1688.03,-100.06C1676.32,-102.73 1663.4,-105.58 1651.5,-108 1413.49,-156.48 1127.41,-205.21 1012.24,-224.44"/>
<polygon fill="black" stroke="black" points="1011.58,-221 1002.29,-226.1 1012.73,-227.91 1011.58,-221"/>
</g>
<!-- 4212056&#45;&gt;4211551 -->
<g id="edge32" class="edge">
<title>4212056&#45;&gt;4211551</title>
<path fill="none" stroke="black" d="M1218.2,-103.67C1213,-105.22 1207.63,-106.7 1202.5,-108 1124.51,-127.68 1032.27,-144.47 975.99,-153.61"/>
<polygon fill="black" stroke="black" points="975.23,-150.19 965.91,-155.23 976.34,-157.1 975.23,-150.19"/>
</g>
<!-- 4216384&#45;&gt;4211551 -->
<g id="edge33" class="edge">
<title>4216384&#45;&gt;4211551</title>
<path fill="none" stroke="black" d="M1328.56,-103.86C1323.26,-105.39 1317.76,-106.83 1312.5,-108 1194.67,-134.27 1053.17,-149.95 977.74,-156.84"/>
<polygon fill="black" stroke="black" points="977.19,-153.37 967.55,-157.75 977.82,-160.34 977.19,-153.37"/>
</g>
<!-- 4216915&#45;&gt;4211551 -->
<g id="edge34" class="edge">
<title>4216915&#45;&gt;4211551</title>
<path fill="none" stroke="black" d="M1438.89,-103.92C1433.49,-105.47 1427.88,-106.89 1422.5,-108 1263.47,-140.88 1070.86,-154.16 978.63,-158.81"/>
<polygon fill="black" stroke="black" points="978.24,-155.33 968.43,-159.31 978.58,-162.32 978.24,-155.33"/>
</g>
<!-- 4217252&#45;&gt;4211551 -->
<g id="edge21" class="edge">
<title>4217252&#45;&gt;4211551</title>
<path fill="none" stroke="black" d="M805.73,-20.05C980.71,-24.31 1604.88,-41.59 1633.5,-72 1644.46,-83.65 1644.38,-96.27 1633.5,-108 1611.26,-131.96 1140.29,-152.56 978.5,-158.95"/>
<polygon fill="black" stroke="black" points="978.16,-155.46 968.3,-159.35 978.43,-162.46 978.16,-155.46"/>
</g>
</g>
</svg>
