<?xml version="1.0" encoding="UTF-8" standalone="no"?>
<!DOCTYPE svg PUBLIC "-//W3C//DTD SVG 1.1//EN"
 "http://www.w3.org/Graphics/SVG/1.1/DTD/svg11.dtd">
<!-- Generated by graphviz version 2.38.0 (20140413.2041)
 -->
<!-- Title: G Pages: 1 -->
<svg width="1761pt" height="332pt"
 viewBox="0.00 0.00 1761.36 332.00" xmlns="http://www.w3.org/2000/svg" xmlns:xlink="http://www.w3.org/1999/xlink">
<g id="graph0" class="graph" transform="scale(1 1) rotate(0) translate(4 328)">
<title>G</title>
<polygon fill="white" stroke="none" points="-4,4 -4,-328 1757.36,-328 1757.36,4 -4,4"/>
<!-- 4198400 -->
<g id="node1" class="node"><title>4198400</title>
<ellipse fill="none" stroke="black" cx="686.146" cy="-306" rx="46.2923" ry="18"/>
<text text-anchor="middle" x="686.146" y="-302.3" font-family="Times New Roman,serif" font-size="14.00">0x401000</text>
</g>
<!-- 4211529 -->
<g id="node2" class="node"><title>4211529</title>
<ellipse fill="none" stroke="black" cx="686.146" cy="-234" rx="46.2923" ry="18"/>
<text text-anchor="middle" x="686.146" y="-230.3" font-family="Times New Roman,serif" font-size="14.00">0x404349</text>
</g>
<!-- 4198400&#45;&gt;4211529 -->
<g id="edge1" class="edge"><title>4198400&#45;&gt;4211529</title>
<path fill="none" stroke="black" d="M686.146,-287.697C686.146,-279.983 686.146,-270.712 686.146,-262.112"/>
<polygon fill="black" stroke="black" points="689.646,-262.104 686.146,-252.104 682.646,-262.104 689.646,-262.104"/>
</g>
<!-- 4211551 -->
<g id="node4" class="node"><title>4211551</title>
<ellipse fill="none" stroke="black" cx="923.146" cy="-162" rx="44.393" ry="18"/>
<text text-anchor="middle" x="923.146" y="-158.3" font-family="Times New Roman,serif" font-size="14.00">0x40435f</text>
</g>
<!-- 4211529&#45;&gt;4211551 -->
<g id="edge12" class="edge"><title>4211529&#45;&gt;4211551</title>
<path fill="none" stroke="black" d="M721.884,-222.445C763.721,-210.088 833.047,-189.612 878.417,-176.211"/>
<polygon fill="black" stroke="black" points="879.678,-179.488 888.277,-173.299 877.695,-172.775 879.678,-179.488"/>
</g>
<!-- 4216910 -->
<g id="node3" class="node"><title>4216910</title>
<ellipse fill="none" stroke="black" cx="156.146" cy="-90" rx="45.4919" ry="18"/>
<text text-anchor="middle" x="156.146" y="-86.3" font-family="Times New Roman,serif" font-size="14.00">0x40584e</text>
</g>
<!-- 4216910&#45;&gt;4211551 -->
<g id="edge2" class="edge"><title>4216910&#45;&gt;4211551</title>
<path fill="none" stroke="black" d="M192.401,-100.886C201.467,-103.614 211.111,-106.29 220.146,-108 458.957,-153.195 749.646,-160.25 868.594,-161.076"/>
<polygon fill="black" stroke="black" points="868.869,-164.578 878.888,-161.135 868.909,-157.578 868.869,-164.578"/>
</g>
<!-- 4211551&#45;&gt;4216910 -->
<g id="edge21" class="edge"><title>4211551&#45;&gt;4216910</title>
<path fill="none" stroke="black" d="M878.756,-161.163C764.927,-160.93 454.558,-155.769 202.146,-108 199.784,-107.553 197.381,-107.04 194.973,-106.478"/>
<polygon fill="black" stroke="black" points="195.691,-103.048 185.133,-103.927 193.934,-109.824 195.691,-103.048"/>
</g>
<!-- 4216915 -->
<g id="node5" class="node"><title>4216915</title>
<ellipse fill="none" stroke="black" cx="266.146" cy="-90" rx="46.2923" ry="18"/>
<text text-anchor="middle" x="266.146" y="-86.3" font-family="Times New Roman,serif" font-size="14.00">0x405853</text>
</g>
<!-- 4211551&#45;&gt;4216915 -->
<g id="edge15" class="edge"><title>4211551&#45;&gt;4216915</title>
<path fill="none" stroke="black" d="M878.783,-160.4C777.221,-158.31 521.143,-149.017 312.146,-108 309.915,-107.562 307.646,-107.068 305.37,-106.531"/>
<polygon fill="black" stroke="black" points="305.999,-103.078 295.44,-103.942 304.233,-109.851 305.999,-103.078"/>
</g>
<!-- 4216961 -->
<g id="node6" class="node"><title>4216961</title>
<ellipse fill="none" stroke="black" cx="46.1459" cy="-90" rx="46.2923" ry="18"/>
<text text-anchor="middle" x="46.1459" y="-86.3" font-family="Times New Roman,serif" font-size="14.00">0x405881</text>
</g>
<!-- 4211551&#45;&gt;4216961 -->
<g id="edge14" class="edge"><title>4211551&#45;&gt;4216961</title>
<path fill="none" stroke="black" d="M879.373,-159.504C731.837,-154.256 253.571,-135.492 102.146,-108 97.9847,-107.245 93.6962,-106.285 89.4317,-105.208"/>
<polygon fill="black" stroke="black" points="90.1651,-101.781 79.5963,-102.523 88.3214,-108.534 90.1651,-101.781"/>
</g>
<!-- 4217003 -->
<g id="node7" class="node"><title>4217003</title>
<ellipse fill="none" stroke="black" cx="376.146" cy="-90" rx="46.2923" ry="18"/>
<text text-anchor="middle" x="376.146" y="-86.3" font-family="Times New Roman,serif" font-size="14.00">0x4058ab</text>
</g>
<!-- 4211551&#45;&gt;4217003 -->
<g id="edge18" class="edge"><title>4211551&#45;&gt;4217003</title>
<path fill="none" stroke="black" d="M879.272,-159.108C792.754,-154.755 594.372,-141.69 431.146,-108 427.292,-107.205 423.322,-106.252 419.364,-105.208"/>
<polygon fill="black" stroke="black" points="420.193,-101.806 409.619,-102.468 418.298,-108.545 420.193,-101.806"/>
</g>
<!-- 4210979 -->
<g id="node9" class="node"><title>4210979</title>
<ellipse fill="none" stroke="black" cx="486.146" cy="-90" rx="46.2923" ry="18"/>
<text text-anchor="middle" x="486.146" y="-86.3" font-family="Times New Roman,serif" font-size="14.00">0x404123</text>
</g>
<!-- 4211551&#45;&gt;4210979 -->
<g id="edge24" class="edge"><title>4211551&#45;&gt;4210979</title>
<path fill="none" stroke="black" d="M880.082,-157.804C807.389,-151.517 656.653,-135.688 532.146,-108 530.088,-107.542 527.996,-107.045 525.894,-106.517"/>
<polygon fill="black" stroke="black" points="526.648,-103.095 516.081,-103.862 524.82,-109.852 526.648,-103.095"/>
</g>
<!-- 4213055 -->
<g id="node10" class="node"><title>4213055</title>
<ellipse fill="none" stroke="black" cx="594.146" cy="-90" rx="44.393" ry="18"/>
<text text-anchor="middle" x="594.146" y="-86.3" font-family="Times New Roman,serif" font-size="14.00">0x40493f</text>
</g>
<!-- 4211551&#45;&gt;4213055 -->
<g id="edge28" class="edge"><title>4211551&#45;&gt;4213055</title>
<path fill="none" stroke="black" d="M882.585,-154.786C828.474,-146.138 729.877,-129.129 647.146,-108 643.767,-107.137 640.287,-106.179 636.802,-105.171"/>
<polygon fill="black" stroke="black" points="637.63,-101.765 627.046,-102.231 635.611,-108.468 637.63,-101.765"/>
</g>
<!-- 4211239 -->
<g id="node11" class="node"><title>4211239</title>
<ellipse fill="none" stroke="black" cx="702.146" cy="-90" rx="46.2923" ry="18"/>
<text text-anchor="middle" x="702.146" y="-86.3" font-family="Times New Roman,serif" font-size="14.00">0x404227</text>
</g>
<!-- 4211551&#45;&gt;4211239 -->
<g id="edge17" class="edge"><title>4211551&#45;&gt;4211239</title>
<path fill="none" stroke="black" d="M889.099,-150.216C850.875,-138.109 788.713,-118.419 746.664,-105.101"/>
<polygon fill="black" stroke="black" points="747.551,-101.71 736.961,-102.027 745.438,-108.384 747.551,-101.71"/>
</g>
<!-- 4217620 -->
<g id="node12" class="node"><title>4217620</title>
<ellipse fill="none" stroke="black" cx="812.146" cy="-90" rx="46.2923" ry="18"/>
<text text-anchor="middle" x="812.146" y="-86.3" font-family="Times New Roman,serif" font-size="14.00">0x405b14</text>
</g>
<!-- 4211551&#45;&gt;4217620 -->
<g id="edge25" class="edge"><title>4211551&#45;&gt;4217620</title>
<path fill="none" stroke="black" d="M900.147,-146.496C884.032,-136.334 862.274,-122.612 844.425,-111.356"/>
<polygon fill="black" stroke="black" points="845.823,-108.1 835.498,-105.726 842.089,-114.021 845.823,-108.1"/>
</g>
<!-- 4213547 -->
<g id="node13" class="node"><title>4213547</title>
<ellipse fill="none" stroke="black" cx="923.146" cy="-90" rx="46.5926" ry="18"/>
<text text-anchor="middle" x="923.146" y="-86.3" font-family="Times New Roman,serif" font-size="14.00">0x404b2b</text>
</g>
<!-- 4211551&#45;&gt;4213547 -->
<g id="edge16" class="edge"><title>4211551&#45;&gt;4213547</title>
<path fill="none" stroke="black" d="M923.146,-143.697C923.146,-135.983 923.146,-126.712 923.146,-118.112"/>
<polygon fill="black" stroke="black" points="926.646,-118.104 923.146,-108.104 919.646,-118.104 926.646,-118.104"/>
</g>
<!-- 4216384 -->
<g id="node14" class="node"><title>4216384</title>
<ellipse fill="none" stroke="black" cx="1034.15" cy="-90" rx="46.2923" ry="18"/>
<text text-anchor="middle" x="1034.15" y="-86.3" font-family="Times New Roman,serif" font-size="14.00">0x405640</text>
</g>
<!-- 4211551&#45;&gt;4216384 -->
<g id="edge13" class="edge"><title>4211551&#45;&gt;4216384</title>
<path fill="none" stroke="black" d="M941.806,-145.638C957.285,-135.076 979.508,-120.987 998.339,-109.761"/>
<polygon fill="black" stroke="black" points="1000.15,-112.757 1006.99,-104.668 996.597,-106.725 1000.15,-112.757"/>
</g>
<!-- 4213612 -->
<g id="node15" class="node"><title>4213612</title>
<ellipse fill="none" stroke="black" cx="1144.15" cy="-90" rx="46.2923" ry="18"/>
<text text-anchor="middle" x="1144.15" y="-86.3" font-family="Times New Roman,serif" font-size="14.00">0x404b6c</text>
</g>
<!-- 4211551&#45;&gt;4213612 -->
<g id="edge19" class="edge"><title>4211551&#45;&gt;4213612</title>
<path fill="none" stroke="black" d="M957.193,-150.216C995.416,-138.109 1057.58,-118.419 1099.63,-105.101"/>
<polygon fill="black" stroke="black" points="1100.85,-108.384 1109.33,-102.027 1098.74,-101.71 1100.85,-108.384"/>
</g>
<!-- 4212365 -->
<g id="node16" class="node"><title>4212365</title>
<ellipse fill="none" stroke="black" cx="1254.15" cy="-90" rx="46.2923" ry="18"/>
<text text-anchor="middle" x="1254.15" y="-86.3" font-family="Times New Roman,serif" font-size="14.00">0x40468d</text>
</g>
<!-- 4211551&#45;&gt;4212365 -->
<g id="edge20" class="edge"><title>4211551&#45;&gt;4212365</title>
<path fill="none" stroke="black" d="M962.514,-153.8C1014.93,-144.777 1109.91,-128.04 1190.15,-108 1195.48,-106.668 1201.06,-105.124 1206.62,-103.52"/>
<polygon fill="black" stroke="black" points="1207.96,-106.776 1216.56,-100.601 1205.98,-100.06 1207.96,-106.776"/>
</g>
<!-- 4212056 -->
<g id="node17" class="node"><title>4212056</title>
<ellipse fill="none" stroke="black" cx="1364.15" cy="-90" rx="46.2923" ry="18"/>
<text text-anchor="middle" x="1364.15" y="-86.3" font-family="Times New Roman,serif" font-size="14.00">0x404558</text>
</g>
<!-- 4211551&#45;&gt;4212056 -->
<g id="edge22" class="edge"><title>4211551&#45;&gt;4212056</title>
<path fill="none" stroke="black" d="M965.654,-156.925C1035.96,-150.146 1180.12,-134.603 1300.15,-108 1305.71,-106.767 1311.52,-105.24 1317.3,-103.611"/>
<polygon fill="black" stroke="black" points="1318.31,-106.962 1326.93,-100.807 1316.35,-100.241 1318.31,-106.962"/>
</g>
<!-- 4212466 -->
<g id="node18" class="node"><title>4212466</title>
<ellipse fill="none" stroke="black" cx="1472.15" cy="-90" rx="44.393" ry="18"/>
<text text-anchor="middle" x="1472.15" y="-86.3" font-family="Times New Roman,serif" font-size="14.00">0x4046f2</text>
</g>
<!-- 4211551&#45;&gt;4212466 -->
<g id="edge23" class="edge"><title>4211551&#45;&gt;4212466</title>
<path fill="none" stroke="black" d="M967.072,-159.312C1054.17,-155.307 1254.56,-142.808 1419.15,-108 1422.76,-107.235 1426.48,-106.319 1430.19,-105.315"/>
<polygon fill="black" stroke="black" points="1431.29,-108.641 1439.91,-102.491 1429.33,-101.919 1431.29,-108.641"/>
</g>
<!-- 4212179 -->
<g id="node19" class="node"><title>4212179</title>
<ellipse fill="none" stroke="black" cx="1580.15" cy="-90" rx="46.2923" ry="18"/>
<text text-anchor="middle" x="1580.15" y="-86.3" font-family="Times New Roman,serif" font-size="14.00">0x4045d3</text>
</g>
<!-- 4211551&#45;&gt;4212179 -->
<g id="edge26" class="edge"><title>4211551&#45;&gt;4212179</title>
<path fill="none" stroke="black" d="M967.495,-160.186C1066.79,-157.708 1313.58,-147.754 1516.15,-108 1521.8,-106.89 1527.7,-105.418 1533.54,-103.803"/>
<polygon fill="black" stroke="black" points="1534.65,-107.127 1543.28,-100.989 1532.71,-100.402 1534.65,-107.127"/>
</g>
<!-- 4211779 -->
<g id="node20" class="node"><title>4211779</title>
<ellipse fill="none" stroke="black" cx="1690.15" cy="-90" rx="46.2923" ry="18"/>
<text text-anchor="middle" x="1690.15" y="-86.3" font-family="Times New Roman,serif" font-size="14.00">0x404443</text>
</g>
<!-- 4211551&#45;&gt;4211779 -->
<g id="edge27" class="edge"><title>4211551&#45;&gt;4211779</title>
<path fill="none" stroke="black" d="M967.345,-161.152C1079.84,-160.799 1385.78,-155.193 1635.15,-108 1639.07,-107.258 1643.1,-106.334 1647.12,-105.303"/>
<polygon fill="black" stroke="black" points="1648.3,-108.608 1657,-102.562 1646.43,-101.862 1648.3,-108.608"/>
</g>
<!-- 4216915&#45;&gt;4211551 -->
<g id="edge3" class="edge"><title>4216915&#45;&gt;4211551</title>
<path fill="none" stroke="black" d="M303.007,-100.989C311.901,-103.652 321.319,-106.268 330.146,-108 526.18,-146.473 763.637,-157.035 868.744,-159.922"/>
<polygon fill="black" stroke="black" points="868.709,-163.422 878.797,-160.186 868.892,-156.425 868.709,-163.422"/>
</g>
<!-- 4216961&#45;&gt;4211529 -->
<g id="edge4" class="edge"><title>4216961&#45;&gt;4211529</title>
<path fill="none" stroke="black" d="M80.6701,-101.976C87.7435,-104.085 95.1613,-106.196 102.146,-108 297.473,-158.457 533.236,-204.422 635.141,-223.577"/>
<polygon fill="black" stroke="black" points="634.685,-227.053 645.159,-225.455 635.975,-220.172 634.685,-227.053"/>
</g>
<!-- 4217252 -->
<g id="node8" class="node"><title>4217252</title>
<ellipse fill="none" stroke="black" cx="867.146" cy="-18" rx="45.4919" ry="18"/>
<text text-anchor="middle" x="867.146" y="-14.3" font-family="Times New Roman,serif" font-size="14.00">0x4059a4</text>
</g>
<!-- 4217003&#45;&gt;4217252 -->
<g id="edge5" class="edge"><title>4217003&#45;&gt;4217252</title>
<path fill="none" stroke="black" d="M409.635,-77.6066C416.679,-75.5048 424.109,-73.5027 431.146,-72 566.482,-43.1015 729.059,-28.5401 812.233,-22.5117"/>
<polygon fill="black" stroke="black" points="812.735,-25.985 822.461,-21.7846 812.238,-19.0026 812.735,-25.985"/>
</g>
<!-- 4217252&#45;&gt;4211551 -->
<g id="edge8" class="edge"><title>4217252&#45;&gt;4211551</title>
<path fill="none" stroke="black" d="M912.643,-20.0355C1088.62,-24.2586 1716.36,-41.4237 1745.15,-72 1756.11,-83.6496 1756.09,-96.328 1745.15,-108 1718.85,-136.048 1156.47,-154.379 977.397,-159.521"/>
<polygon fill="black" stroke="black" points="977.055,-156.029 967.159,-159.813 977.255,-163.026 977.055,-156.029"/>
</g>
<!-- 4210979&#45;&gt;4211551 -->
<g id="edge6" class="edge"><title>4210979&#45;&gt;4211551</title>
<path fill="none" stroke="black" d="M523.362,-100.799C532.17,-103.426 541.463,-106.069 550.146,-108 663.055,-133.109 797.533,-148.465 870.288,-155.797"/>
<polygon fill="black" stroke="black" points="870.266,-159.312 880.564,-156.821 870.96,-152.347 870.266,-159.312"/>
</g>
<!-- 4213055&#45;&gt;4217252 -->
<g id="edge7" class="edge"><title>4213055&#45;&gt;4217252</title>
<path fill="none" stroke="black" d="M627.394,-77.921C633.916,-75.8651 640.726,-73.8003 647.146,-72 705.578,-55.6146 773.593,-39.7066 818.352,-29.6654"/>
<polygon fill="black" stroke="black" points="819.376,-33.0231 828.373,-27.4283 817.851,-26.1913 819.376,-33.0231"/>
</g>
<!-- 4211239&#45;&gt;4217252 -->
<g id="edge9" class="edge"><title>4211239&#45;&gt;4217252</title>
<path fill="none" stroke="black" d="M732.409,-76.1609C759.241,-64.778 798.595,-48.0824 827.85,-35.6708"/>
<polygon fill="black" stroke="black" points="829.513,-38.7673 837.352,-31.6397 826.779,-32.3233 829.513,-38.7673"/>
</g>
<!-- 4217620&#45;&gt;4217252 -->
<g id="edge10" class="edge"><title>4217620&#45;&gt;4217252</title>
<path fill="none" stroke="black" d="M825.18,-72.411C831.961,-63.7805 840.383,-53.0622 847.898,-43.4972"/>
<polygon fill="black" stroke="black" points="850.779,-45.4955 854.205,-35.4699 845.275,-41.1708 850.779,-45.4955"/>
</g>
<!-- 4213547&#45;&gt;4217252 -->
<g id="edge11" class="edge"><title>4213547&#45;&gt;4217252</title>
<path fill="none" stroke="black" d="M909.875,-72.411C902.97,-63.7805 894.396,-53.0622 886.744,-43.4972"/>
<polygon fill="black" stroke="black" points="889.302,-41.0922 880.322,-35.4699 883.836,-45.4651 889.302,-41.0922"/>
</g>
<!-- 4216384&#45;&gt;4211551 -->
<g id="edge32" class="edge"><title>4216384&#45;&gt;4211551</title>
<path fill="none" stroke="black" d="M1015.06,-106.655C999.572,-117.2 977.539,-131.162 958.862,-142.294"/>
<polygon fill="black" stroke="black" points="956.85,-139.416 950.006,-147.503 960.4,-145.449 956.85,-139.416"/>
</g>
<!-- 4213612&#45;&gt;4217252 -->
<g id="edge29" class="edge"><title>4213612&#45;&gt;4217252</title>
<path fill="none" stroke="black" d="M1109.63,-77.9524C1102.86,-75.8937 1095.8,-73.8199 1089.15,-72 1029.98,-55.8133 961.201,-39.824 916.063,-29.7114"/>
<polygon fill="black" stroke="black" points="916.764,-26.2818 906.242,-27.5203 915.24,-33.1138 916.764,-26.2818"/>
</g>
<!-- 4212365&#45;&gt;4211551 -->
<g id="edge33" class="edge"><title>4212365&#45;&gt;4211551</title>
<path fill="none" stroke="black" d="M1223.86,-103.695C1218.65,-105.236 1213.29,-106.716 1208.15,-108 1127.54,-128.132 1032.06,-144.93 974.5,-153.923"/>
<polygon fill="black" stroke="black" points="973.903,-150.474 964.554,-155.458 974.971,-157.392 973.903,-150.474"/>
</g>
<!-- 4212056&#45;&gt;4211551 -->
<g id="edge30" class="edge"><title>4212056&#45;&gt;4211551</title>
<path fill="none" stroke="black" d="M1334.21,-103.869C1328.91,-105.401 1323.41,-106.832 1318.15,-108 1197.83,-134.666 1053.28,-150.22 976.667,-156.973"/>
<polygon fill="black" stroke="black" points="975.979,-153.519 966.318,-157.867 976.582,-160.493 975.979,-153.519"/>
</g>
<!-- 4212466&#45;&gt;4217252 -->
<g id="edge34" class="edge"><title>4212466&#45;&gt;4217252</title>
<path fill="none" stroke="black" d="M1440.21,-77.5394C1433.33,-75.4161 1426.06,-73.4225 1419.15,-72 1239.96,-35.107 1022.64,-23.7819 922.532,-20.395"/>
<polygon fill="black" stroke="black" points="922.459,-16.8909 912.351,-20.0644 922.232,-23.8872 922.459,-16.8909"/>
</g>
<!-- 4212179&#45;&gt;4211551 -->
<g id="edge31" class="edge"><title>4212179&#45;&gt;4211551</title>
<path fill="none" stroke="black" d="M1550.85,-103.942C1545.36,-105.502 1539.64,-106.922 1534.15,-108 1331.88,-147.695 1085.53,-157.678 977.803,-160.175"/>
<polygon fill="black" stroke="black" points="977.43,-156.682 967.509,-160.4 977.583,-163.68 977.43,-156.682"/>
</g>
</g>
</svg>
